<?xml version="1.0" encoding="UTF-8"?>
<svg version="1.1" xmlns="http://www.w3.org/2000/svg" width="1024" height="1024">
<path d="M0 0 C337.92 0 675.84 0 1024 0 C1024 337.92 1024 675.84 1024 1024 C686.08 1024 348.16 1024 0 1024 C0 686.08 0 348.16 0 0 Z " fill="#F8F9FB" transform="translate(0,0)"/>
<path d="M0 0 C162.36 0 324.72 0 492 0 C483.97851164 12.605196 483.97851164 12.605196 479.75 18.6875 C478.79163183 20.07419467 477.83329948 21.4609141 476.875 22.84765625 C476.39546875 23.54004395 475.9159375 24.23243164 475.421875 24.94580078 C473.19162182 28.16787329 470.9703551 31.39610187 468.75 34.625 C468.30470947 35.27202881 467.85941895 35.91905762 467.40063477 36.58569336 C464.74484157 40.44845427 462.10047254 44.31876249 459.46484375 48.1953125 C452.6931918 58.15424845 445.87629268 68.07512177 438.93847656 77.91918945 C434.93327656 83.61770539 431.03266791 89.37614172 427.28198242 95.24584961 C422.75407255 102.20327146 417.82698239 105.95845595 410.54296875 109.58203125 C409.72234451 109.99990402 408.90172028 110.41777679 408.05622864 110.84831238 C405.43784494 112.17887034 402.81288457 113.49581924 400.1875 114.8125 C398.46634932 115.68466422 396.74564197 116.55770391 395.02539062 117.43164062 C390.81470295 119.56767607 386.59741377 121.69023371 382.37692261 123.80682373 C380.13053485 124.93447364 377.88637859 126.06643672 375.64282227 127.19970703 C367.35423922 131.37822305 359.00488908 135.38887106 350.5625 139.25 C349.47001953 139.75273437 348.37753906 140.25546875 347.25195312 140.7734375 C345.14137662 141.74305894 343.02900123 142.70877765 340.91455078 143.66992188 C339.03233936 144.52888383 337.1552529 145.39920794 335.28466797 146.28320312 C334.47787598 146.65896484 333.67108398 147.03472656 332.83984375 147.421875 C332.14109131 147.7528418 331.44233887 148.08380859 330.72241211 148.42480469 C330.15401611 148.61461914 329.58562012 148.80443359 329 149 C328.34 148.67 327.68 148.34 327 148 C335.51114195 129.8717667 344.06413726 111.76517912 352.8125 93.75 C353.13773651 93.07915375 353.46297302 92.4083075 353.79806519 91.71713257 C358.22263114 82.59651965 362.73062631 73.51894805 367.26831055 64.45410156 C367.82128563 63.34882111 368.37426071 62.24354065 368.94399261 61.10476685 C370.29572243 58.40304132 371.647731 55.70145568 373 53 C372.37475713 52.99902319 371.74951425 52.99804638 371.10532463 52.99703997 C334.01170474 52.93871159 296.91814567 52.86487227 259.82459807 52.77101372 C255.36630133 52.75974616 250.90800429 52.74860761 246.44970703 52.73754883 C245.56217618 52.73534514 244.67464532 52.73314146 243.76021959 52.730871 C229.40753133 52.69554152 215.05484312 52.67065286 200.70212756 52.64965298 C185.96440355 52.62785623 171.22673574 52.59476915 156.48905957 52.55129844 C147.40215829 52.52484835 138.315327 52.50710412 129.22838916 52.50065396 C122.98902158 52.49537969 116.7497419 52.47909466 110.5104215 52.45433434 C106.91582134 52.44038886 103.32137828 52.43112228 99.72674942 52.43499184 C95.81664818 52.43907304 91.90684575 52.41987662 87.99679565 52.39872742 C86.87807284 52.40357499 85.75935003 52.40842257 84.60672653 52.41341704 C73.36589466 52.31369217 62.36308408 50.34663491 52.25 45.3125 C51.53102539 44.96219727 50.81205078 44.61189453 50.07128906 44.25097656 C44.03845556 41.21142987 38.97377357 37.581318 34 33 C33.04480469 32.13890625 32.08960938 31.2778125 31.10546875 30.390625 C28.34466366 27.88304135 25.619607 25.33928879 22.90234375 22.78466797 C20.78523114 20.79851638 18.65839558 18.82305699 16.53125 16.84765625 C14.99968956 15.4196037 13.4684365 13.99122142 11.9375 12.5625 C11.21103271 11.88832031 10.48456543 11.21414063 9.73608398 10.51953125 C9.04844971 9.875 8.36081543 9.23046875 7.65234375 8.56640625 C7.04382568 7.99865479 6.43530762 7.43090332 5.80834961 6.84594727 C3.71410499 4.70816091 1.8694975 2.33687187 0 0 Z " fill="#171F3C" transform="translate(249,339)"/>
<path d="M0 0 C14.84831034 -0.89089862 30.79624548 4.11191573 42 14 C45.72230501 19.09939094 45.69076105 23.88590424 46 30 C46.185625 31.794375 46.185625 31.794375 46.375 33.625 C45.91565979 37.75906191 44.37367662 40.32389619 42.24609375 43.84375 C40.73700336 46.45509136 39.8169854 49.1034154 39 52 C38.34 52 37.68 52 37 52 C36.71125 52.61875 36.4225 53.2375 36.125 53.875 C35 56 35 56 33 58 C32.58621094 59.13501953 32.58621094 59.13501953 32.1640625 60.29296875 C30.73142959 63.62456138 28.85427703 65.66469206 26.375 68.3125 C25.90280029 68.81740967 25.43060059 69.32231934 24.9440918 69.8425293 C20.64117764 74.40431685 16.23331398 78.86530391 11.8125 83.3125 C11.16007324 83.96968018 10.50764648 84.62686035 9.83544922 85.30395508 C-15.38043687 110.43420231 -46.47873853 130.64167375 -76.92919922 148.76611328 C-78.94898821 149.96960462 -80.96113738 151.185094 -82.97265625 152.40234375 C-94.69127762 159.44468125 -106.73181698 165.88652992 -118.80419922 172.29785156 C-121.67976418 173.8294359 -124.54600045 175.37691541 -127.41015625 176.9296875 C-161.18784298 195.0838188 -196.80448096 210.15318647 -232.5625 223.9375 C-233.40119629 224.26186035 -234.23989258 224.5862207 -235.10400391 224.92041016 C-238.19833716 226.08601541 -240.66498884 227 -244 227 C-244.13094055 227.57689072 -244.2618811 228.15378143 -244.39678955 228.74815369 C-244.98819622 230.95593527 -245.74514158 232.93317384 -246.65136719 235.02954102 C-246.99019424 235.81849258 -247.3290213 236.60744415 -247.67811584 237.42030334 C-248.04730637 238.2728923 -248.41649689 239.12548126 -248.796875 240.00390625 C-249.5931751 241.86112109 -250.38897087 243.71855223 -251.18432617 245.57617188 C-251.60314056 246.55255615 -252.02195496 247.52894043 -252.45346069 248.53491211 C-260.49009383 267.30149562 -268.02214455 286.17127023 -274.95576477 305.37042236 C-277.1717845 311.50296422 -279.47861682 317.59901724 -281.8125 323.6875 C-282.14467529 324.55568359 -282.47685059 325.42386719 -282.8190918 326.31835938 C-283.54466006 328.21277682 -284.27206547 330.10649054 -285 332 C-296.01715262 322.06416418 -300.45167403 300.97268256 -304 287 C-304.49113281 285.09734375 -304.49113281 285.09734375 -304.9921875 283.15625 C-307.41455584 272.54396967 -307.71630995 261.84761798 -308 251 C-308.64622314 251.17539307 -309.29244629 251.35078613 -309.95825195 251.53149414 C-317.96808904 253.70294993 -325.98298899 255.85519472 -334 258 C-335.15322754 258.30953613 -336.30645508 258.61907227 -337.49462891 258.93798828 C-352.38426636 262.92181631 -367.29142738 266.50213418 -382.4140625 269.48852539 C-384.08177912 269.81838437 -385.74853746 270.15314435 -387.4140625 270.49389648 C-494.40273108 292.33741632 -494.40273108 292.33741632 -532.8203125 267.5234375 C-540.94375091 261.8457655 -546.72210259 255.35401156 -548.77734375 245.27734375 C-550.61476319 226.48408877 -540.25921623 209.02694011 -528.98193359 194.75341797 C-524.15744162 188.91731298 -518.83405086 183.55445679 -513.5 178.1875 C-512.63415283 177.31601318 -511.76830566 176.44452637 -510.8762207 175.54663086 C-504.88592352 169.62283617 -498.60641034 164.223174 -492 159 C-491.23155762 158.38809814 -490.46311523 157.77619629 -489.67138672 157.14575195 C-487.51847896 155.44026708 -485.35593597 153.74818736 -483.1875 152.0625 C-482.42775879 151.47130371 -481.66801758 150.88010742 -480.88525391 150.27099609 C-474.05731405 144.98830429 -467.07905816 139.93940714 -460 135 C-459.34 135.33 -458.68 135.66 -458 136 C-458.43231934 136.34667725 -458.86463867 136.69335449 -459.31005859 137.05053711 C-467.73667959 143.81981074 -476.13359514 150.57714036 -484 158 C-484.89074219 158.82628906 -485.78148437 159.65257812 -486.69921875 160.50390625 C-498.93515175 172.22787553 -511.53948536 187.56684838 -512.16796875 205.2109375 C-511.79832063 211.34881563 -509.9593963 217.01734551 -505.68359375 221.59765625 C-490.89943416 233.91207224 -469.06009406 235.42644936 -450.6875 235.375 C-449.98057007 235.37478851 -449.27364014 235.37457703 -448.54528809 235.37435913 C-432.4844667 235.32715301 -416.85055562 233.46016148 -401 231 C-399.79456543 230.81808105 -398.58913086 230.63616211 -397.34716797 230.44873047 C-363.70661265 225.29980674 -330.01023007 217.42617036 -297.65991211 206.85449219 C-294.97449208 205.99180563 -292.28132126 205.15608177 -289.58648682 204.323349 C-241.84375171 189.54402912 -195.17807698 171.36779644 -150 150 C-149.02450195 149.54238281 -148.04900391 149.08476562 -147.04394531 148.61328125 C-121.38114983 136.56192023 -96.27525721 123.66339015 -72 109 C-70.63174072 108.17653076 -70.63174072 108.17653076 -69.23583984 107.33642578 C-47.68082846 94.31996524 -27.34768069 80.12306724 -8 64 C-7.319375 63.4328125 -6.63875 62.865625 -5.9375 62.28125 C5.35542851 52.74067246 20.44901451 38.02013755 22.421875 22.73046875 C22.53564953 18.02589212 22.62669115 14.04440857 20 10 C14.38498266 4.91768944 7.2186065 3.47981433 0 2 C0 1.34 0 0.68 0 0 Z " fill="#124463" transform="translate(771,335)"/>
<path d="M0 0 C86.79 0 173.58 0 263 0 C253.56861172 22.00657266 253.56861172 22.00657266 248.75732422 32.01831055 C244.50786245 40.88617485 240.55172515 49.88807198 236.5625 58.875 C236.20348602 59.68292999 235.84447205 60.49085999 235.47457886 61.32327271 C234.44129438 63.64979618 233.40967471 65.97704833 232.37890625 68.3046875 C232.06780914 69.00604324 231.75671204 69.70739899 231.43618774 70.43000793 C230.20471766 73.21750628 229.01380198 75.95824757 228.05664062 78.85375977 C226.68601576 81.63776235 225.61103038 82.02239757 222.71484375 83.03515625 C221.80871338 83.36330322 220.90258301 83.6914502 219.96899414 84.02954102 C218.96860107 84.37041748 217.96820801 84.71129395 216.9375 85.0625 C215.88618896 85.43753662 214.83487793 85.81257324 213.75170898 86.19897461 C211.42901645 87.02749041 209.10374962 87.84881404 206.77636719 88.6640625 C202.8167704 90.056414 198.88056004 91.50924549 194.9453125 92.96875 C181.88957585 97.80079781 168.80666766 102.51832922 155.5625 106.8125 C154.51457275 107.15611572 153.46664551 107.49973145 152.38696289 107.85375977 C151.4355542 108.15596436 150.48414551 108.45816895 149.50390625 108.76953125 C148.67705322 109.03354736 147.8502002 109.29756348 146.99829102 109.56958008 C145 110 145 110 143 109 C143.90513408 104.98790589 144.81050709 100.97586578 145.71606445 96.96386719 C146.02146233 95.61069047 146.32680443 94.25750117 146.63208008 92.90429688 C149.40797867 80.59981461 152.20212621 68.29950247 155 56 C154.22120483 56.00666183 153.44240967 56.01332367 152.64001465 56.02018738 C145.22808087 56.08080214 137.81627065 56.1262265 130.40415192 56.15543652 C126.59533441 56.17095947 122.78672509 56.19194625 118.97802734 56.22631836 C115.28862015 56.25939789 111.59941061 56.27695289 107.90986633 56.28463173 C106.51635128 56.29008962 105.12284455 56.30074107 103.72941589 56.31719017 C71.45810284 56.68229206 47.55396014 43.45578768 24.421875 22.17578125 C21.86742834 19.88089933 19.23527893 17.71808866 16.5625 15.5625 C10.84778439 10.93358036 5.2680981 6.13563142 0 1 C0 0.67 0 0.34 0 0 Z " fill="#161C37" transform="translate(326,417)"/>
<path d="M0 0 C0.99 0.495 0.99 0.495 2 1 C-13.96923568 24.59555071 -13.96923568 24.59555071 -22.125 36.1875 C-28.94939772 45.88755028 -35.62537367 55.68559792 -42.29394531 65.49316406 C-53.23937894 81.57612235 -64.30462064 97.58061412 -75.75 113.3125 C-80.0484194 119.22202497 -84.18113082 125.20820818 -88.19238281 131.31542969 C-93.03571173 138.64471503 -98.240303 145.71256416 -103.41162109 152.81201172 C-105.89744116 156.23622312 -108.35632854 159.67948768 -110.8125 163.125 C-111.23917969 163.72320557 -111.66585938 164.32141113 -112.10546875 164.93774414 C-113.07074564 166.29152069 -114.03544746 167.64570726 -115 169 C-115.66 168.67 -116.32 168.34 -117 168 C-104.87099839 131.75297685 -91.63783597 96.13128331 -76.85668945 60.87973022 C-75.02535309 56.50214073 -73.24288129 52.11042869 -71.51759338 47.68998718 C-70.75915061 45.76013323 -69.98255365 43.83884674 -69.19750977 41.91967773 C-68.26838355 39.64442331 -67.36893106 37.35669455 -66.50756836 35.05493164 C-64.13128518 29.39696267 -62.18535784 26.5447302 -56.4453125 24.11328125 C-54.30434755 23.3864592 -52.15551857 22.68245212 -50 22 C-47.89151857 21.16970359 -45.7898952 20.32179098 -43.6953125 19.45703125 C-42.62716309 19.0276123 -41.55901367 18.59819336 -40.45849609 18.15576172 C-30.34421764 14.08012381 -20.30102415 9.8918615 -10.375 5.375 C-9.43930176 4.94936768 -8.50360352 4.52373535 -7.53955078 4.08520508 C-3.49837533 2.45984675 -3.49837533 2.45984675 0 0 Z " fill="#181F3A" transform="translate(601,547)"/>
<path d="M0 0 C0.99 0.495 0.99 0.495 2 1 C1.56768066 1.34667725 1.13536133 1.69335449 0.68994141 2.05053711 C-11.04078849 11.47406767 -22.29029697 21.07901491 -32.75 31.91015625 C-35 34 -35 34 -37 34 C-37.33 33.34 -37.66 32.68 -38 32 C-38.61875 32.63615234 -38.61875 32.63615234 -39.25 33.28515625 C-42.31382068 36.39684913 -45.40361193 39.38040588 -48.75 42.1875 C-57.43207402 49.7552082 -64.56765002 58.49062066 -71.4375 67.6875 C-72.02869629 68.47092773 -72.61989258 69.25435547 -73.22900391 70.06152344 C-76.52370828 74.55576068 -79.09407566 78.93726985 -81.18481445 84.10839844 C-82.15053157 86.34930176 -83.40093007 88.16106958 -85 90 C-82.58294581 66.2689225 -54.22900629 42.12984315 -37.39453125 28.296875 C-35.60126951 26.85843398 -33.80335232 25.4257702 -32 24 C-30.84733643 23.08214722 -30.84733643 23.08214722 -29.67138672 22.14575195 C-27.51847896 20.44026708 -25.35593597 18.74818736 -23.1875 17.0625 C-22.42775879 16.47130371 -21.66801758 15.88010742 -20.88525391 15.27099609 C-14.05731405 9.98830429 -7.07905816 4.93940714 0 0 Z " fill="#171D37" transform="translate(311,470)"/>
<path d="M0 0 C0.66 0.33 1.32 0.66 2 1 C1.56768066 1.34667725 1.13536133 1.69335449 0.68994141 2.05053711 C-10.34070496 10.91167653 -21.12856868 19.83438695 -31 30 C-31.66 29.67 -32.32 29.34 -33 29 C-32.04645693 23.09711432 -28.82128282 20.88621362 -24.26855469 17.54321289 C-22.92905762 16.59369751 -22.92905762 16.59369751 -21.5625 15.625 C-20.66047852 14.96814209 -19.75845703 14.31128418 -18.82910156 13.63452148 C-16.22823825 11.74372846 -13.6149452 9.87124041 -11 8 C-9.7419768 7.08410554 -8.48523639 6.16644325 -7.23046875 5.24609375 C-4.82815359 3.48607517 -2.41918315 1.73670717 0 0 Z " fill="#2B3049" transform="translate(311,470)"/>
<path d="M0 0 C-0.66 0.99 -1.32 1.98 -2 3 C-4.54191902 3.35272945 -6.8514906 3.51281728 -9.40234375 3.546875 C-10.5212072 3.57797112 -10.5212072 3.57797112 -11.66267395 3.60969543 C-14.08753871 3.67198834 -16.51214469 3.71184841 -18.9375 3.75 C-20.5869237 3.78593751 -22.23633788 3.82231416 -23.88574219 3.85913086 C-34.95727529 4.0787339 -45.96168014 3.96958215 -57 3 C-57.33 2.34 -57.66 1.68 -58 1 C-56.11680054 1.00785522 -56.11680054 1.00785522 -54.19555664 1.01586914 C-49.50464602 1.03407067 -44.81373848 1.04548706 -40.12280273 1.05493164 C-38.09870884 1.05993738 -36.07461852 1.06674396 -34.05053711 1.07543945 C-31.12873448 1.08767059 -28.20697996 1.09326605 -25.28515625 1.09765625 C-24.39103531 1.10281754 -23.49691437 1.10797882 -22.57569885 1.11329651 C-17.64229685 1.11372969 -12.84880237 0.85798 -7.95506287 0.22142029 C-5.29789153 -0.07951717 -2.67035737 -0.0684707 0 0 Z " fill="#161B35" transform="translate(353,569)"/>
<path d="M0 0 C6.28260706 -0.23268915 11.88019467 0.59545452 18 2 C17.01 2.33 16.02 2.66 15 3 C15.99 4.65 16.98 6.3 18 8 C17.505 7.731875 17.01 7.46375 16.5 7.1875 C11.13654889 4.63986072 5.92451712 2.74056464 0 2 C0 1.34 0 0.68 0 0 Z " fill="#3ABAD4" transform="translate(771,335)"/>
<path d="M0 0 C0.66 0.33 1.32 0.66 2 1 C-0.62251069 3.14889043 -3.24842195 5.29358373 -5.875 7.4375 C-6.62136719 8.04916016 -7.36773437 8.66082031 -8.13671875 9.29101562 C-8.85214844 9.87431641 -9.56757813 10.45761719 -10.3046875 11.05859375 C-11.2944458 11.86768188 -11.2944458 11.86768188 -12.30419922 12.69311523 C-14 14 -14 14 -16 15 C-15.61501271 12.56706256 -15.29096937 11.28577433 -13.50952148 9.53613281 C-12.88634033 9.09624023 -12.26315918 8.65634766 -11.62109375 8.203125 C-10.94755859 7.71972656 -10.27402344 7.23632812 -9.58007812 6.73828125 C-8.87302734 6.24714844 -8.16597656 5.75601562 -7.4375 5.25 C-6.72658203 4.74339844 -6.01566406 4.23679687 -5.28320312 3.71484375 C-3.52898568 2.46687697 -1.76536641 1.23214503 0 0 Z " fill="#30354B" transform="translate(311,470)"/>
<path d="M0 0 C0.33 0.66 0.66 1.32 1 2 C1.66 2 2.32 2 3 2 C2.46884894 6.51478398 0.63379708 9.34666857 -2 13 C-2.66 12.67 -3.32 12.34 -4 12 C-2.68 8.04 -1.36 4.08 0 0 Z " fill="#2C334F" transform="translate(488,703)"/>
<path d="M0 0 C2.35754593 3.68366551 2 6.71265238 2 11 C2.54093405 14.03309447 3.24176103 17.01443406 4 20 C-0.16226316 15.45934928 -0.90538309 9.98695511 -1.1875 4.0625 C-1 1 -1 1 0 0 Z " fill="#2D3148" transform="translate(223,570)"/>
<path d="M0 0 C-1.55500981 3.81684226 -4.03595495 6.19195732 -7 9 C-7.99 8.67 -8.98 8.34 -10 8 C-10 7.34 -10 6.68 -10 6 C-8.3203125 4.4921875 -8.3203125 4.4921875 -6.125 2.875 C-5.40570313 2.33617187 -4.68640625 1.79734375 -3.9453125 1.2421875 C-2 0 -2 0 0 0 Z " fill="#1E2540" transform="translate(295,483)"/>
<path d="M0 0 C0.66 0.66 1.32 1.32 2 2 C-0.31 4.64 -2.62 7.28 -5 10 C-5.99 9.67 -6.98 9.34 -8 9 C-5.36 6.03 -2.72 3.06 0 0 Z " fill="#232A43" transform="translate(250,521)"/>
<path d="M0 0 C-0.99 1.485 -0.99 1.485 -2 3 C-4.8203125 3.29296875 -4.8203125 3.29296875 -8.125 3.1875 C-9.76855469 3.14689453 -9.76855469 3.14689453 -11.4453125 3.10546875 C-12.28835938 3.07066406 -13.13140625 3.03585937 -14 3 C-14.33 2.34 -14.66 1.68 -15 1 C-9.9752761 0.37470103 -5.07471573 -0.13012092 0 0 Z " fill="#232944" transform="translate(353,569)"/>
<path d="M0 0 C1.40980321 4.22940963 -0.07526585 6.08179119 -2 10 C-3.6875 12.4375 -3.6875 12.4375 -5 14 C-4.46515599 8.65155992 -2.53309233 4.64203897 0 0 Z " fill="#202641" transform="translate(231,546)"/>
<path d="M0 0 C1.21236328 0.01353516 1.21236328 0.01353516 2.44921875 0.02734375 C3.37154297 0.04474609 3.37154297 0.04474609 4.3125 0.0625 C4.3125 0.3925 4.3125 0.7225 4.3125 1.0625 C2.69078761 1.45147161 1.06495075 1.82328298 -0.5625 2.1875 C-1.46742188 2.39632812 -2.37234375 2.60515625 -3.3046875 2.8203125 C-4.09101563 2.90023437 -4.87734375 2.98015625 -5.6875 3.0625 C-6.3475 2.4025 -7.0075 1.7425 -7.6875 1.0625 C-4.80538698 0.10179566 -2.98899956 -0.04331883 0 0 Z " fill="#1A203B" transform="translate(381.6875,564.9375)"/>
</svg>
